<svg width="15" height="14" viewBox="0 0 15 14" fill="none" xmlns="http://www.w3.org/2000/svg">
<path d="M11.8056 10.3315C12.0023 10.3315 12.1868 10.3682 12.3589 10.4416C12.5311 10.515 12.6811 10.6152 12.809 10.7424C12.9369 10.8696 13.0378 11.0188 13.1115 11.19C13.1853 11.3612 13.2222 11.5447 13.2222 11.7404C13.2222 11.936 13.1853 12.1195 13.1115 12.2907C13.0378 12.4619 12.9369 12.6111 12.809 12.7383C12.6811 12.8655 12.5311 12.9658 12.3589 13.0391C12.1868 13.1125 12.0023 13.1492 11.8056 13.1492C11.6088 13.1492 11.4243 13.1125 11.2522 13.0391C11.08 12.9658 10.93 12.8655 10.8021 12.7383C10.6742 12.6111 10.5734 12.4619 10.4996 12.2907C10.4258 12.1195 10.3889 11.936 10.3889 11.7404C10.3889 11.505 10.2267 11.2707 9.99138 11.2707H7.00862C6.7733 11.2707 6.61111 11.505 6.61111 11.7404C6.61111 11.936 6.57422 12.1195 6.50043 12.2907C6.42665 12.4619 6.32581 12.6111 6.19792 12.7383C6.07002 12.8655 5.91999 12.9658 5.74783 13.0391C5.57567 13.1125 5.3912 13.1492 5.19444 13.1492C4.99769 13.1492 4.81322 13.1125 4.64106 13.0391C4.46889 12.9658 4.31887 12.8655 4.19097 12.7383C4.06308 12.6111 3.96224 12.4619 3.88845 12.2907C3.81467 12.1195 3.77778 11.936 3.77778 11.7404C3.77778 11.4713 3.8491 11.2218 3.99175 10.9919C4.23175 10.6051 4.47309 10.1452 4.32872 9.71343L1.57967 1.49286C1.46909 1.16217 1.15945 0.939229 0.810763 0.939229H0.469614C0.210254 0.939229 0 0.728975 0 0.469614C0 0.210254 0.210253 0 0.469614 0H1.35296C1.78321 0 2.16523 0.275204 2.30149 0.68331L2.47238 1.19515C2.60864 1.60325 2.99066 1.87846 3.42091 1.87846H13.7222C14.4052 1.87846 14.8872 2.54791 14.6706 3.19563L13.1407 7.77023C13.0043 8.17809 12.6224 8.45306 12.1923 8.45306H6.21046C5.56919 8.45306 5.11649 9.08147 5.31958 9.68973C5.44755 10.073 5.80636 10.3315 6.21046 10.3315H11.8056ZM5.66667 11.7404C5.66667 11.6132 5.61994 11.5031 5.52648 11.4102C5.43302 11.3172 5.32234 11.2707 5.19444 11.2707C5.06655 11.2707 4.95587 11.3172 4.86241 11.4102C4.76895 11.5031 4.72222 11.6132 4.72222 11.7404C4.72222 11.8675 4.76895 11.9776 4.86241 12.0706C4.95587 12.1635 5.06655 12.21 5.19444 12.21C5.32234 12.21 5.43302 12.1635 5.52648 12.0706C5.61994 11.9776 5.66667 11.8675 5.66667 11.7404ZM11.8056 12.21C11.9334 12.21 12.0441 12.1635 12.1376 12.0706C12.231 11.9776 12.2778 11.8675 12.2778 11.7404C12.2778 11.6132 12.231 11.5031 12.1376 11.4102C12.0441 11.3172 11.9334 11.2707 11.8056 11.2707C11.6777 11.2707 11.567 11.3172 11.4735 11.4102C11.3801 11.5031 11.3333 11.6132 11.3333 11.7404C11.3333 11.8675 11.3801 11.9776 11.4735 12.0706C11.567 12.1635 11.6777 12.21 11.8056 12.21Z" fill="white"/>
</svg>
