<svg width="18" height="12" viewBox="0 0 18 12" fill="none" xmlns="http://www.w3.org/2000/svg">
<path d="M8.83325 0.000268445C9.66333 0.000268445 10.4713 0.14335 11.2571 0.429512C12.0429 0.715674 12.7955 1.10823 13.5149 1.60718C14.2343 2.10613 14.915 2.70413 15.5569 3.4012C15.9713 3.85121 16.365 4.3211 16.7379 4.81087C17.1099 5.29952 17.1132 5.97365 16.7435 6.46407C16.3705 6.95883 15.9777 7.42739 15.5652 7.86973C14.9288 8.55212 14.2481 9.14646 13.5232 9.65274C12.7983 10.159 12.0429 10.5553 11.2571 10.8414C10.4713 11.1276 9.66333 11.2707 8.83325 11.2707C8.00317 11.2707 7.19523 11.1276 6.40942 10.8414C5.62362 10.5553 4.87101 10.1627 4.15161 9.66375C3.43221 9.1648 2.74878 8.57046 2.10132 7.88074C1.67778 7.42956 1.27911 6.95326 0.905306 6.45184C0.544281 5.96757 0.547614 5.30559 0.910866 4.82299C1.28526 4.32558 1.68208 3.85165 2.10132 3.4012C2.74325 2.71147 3.42391 2.11714 4.14331 1.61819C4.86271 1.11924 5.61808 0.723012 6.40942 0.429512C7.20076 0.136012 8.00871 -0.00706905 8.83325 0.000268445ZM12.0208 5.63546C12.0208 5.0558 11.9377 4.50916 11.7717 3.99553C11.6057 3.48191 11.3761 3.03432 11.0828 2.65277C10.7895 2.27122 10.4519 1.97039 10.0701 1.75026C9.68823 1.53014 9.27596 1.4164 8.83325 1.40907C8.39608 1.40907 7.98381 1.51913 7.59644 1.73925C7.20907 1.95938 6.8715 2.26389 6.58374 2.65277C6.29598 3.04166 6.06909 3.48925 5.90308 3.99553C5.73706 4.50182 5.65129 5.04846 5.64575 5.63546C5.64575 6.21513 5.72876 6.76177 5.89478 7.27539C6.06079 7.78902 6.29045 8.23661 6.58374 8.61816C6.87703 8.99971 7.2146 9.30054 7.59644 9.52067C7.97827 9.74079 8.39054 9.85452 8.83325 9.86186C9.27043 9.86186 9.6827 9.7518 10.0701 9.53167C10.4574 9.31155 10.795 9.00704 11.0828 8.61816C11.3705 8.22927 11.5974 7.78168 11.7634 7.27539C11.9294 6.76911 12.0152 6.22246 12.0208 5.63546ZM2.54387 4.74073C2.08845 5.25127 2.09065 6.01795 2.5479 6.52686C2.84327 6.85561 3.14819 7.16749 3.46265 7.4625C3.63844 7.62742 3.81797 7.78477 4.00122 7.93454C4.36939 8.23543 4.88962 7.79369 4.78247 7.33043C4.65519 6.78011 4.58879 6.21513 4.58325 5.63546C4.58325 5.06314 4.64689 4.50182 4.77417 3.95151C4.883 3.48094 4.36065 3.03274 3.9866 3.33829C3.80841 3.48384 3.63376 3.63689 3.46265 3.79742C3.14676 4.09377 2.8405 4.40821 2.54387 4.74073ZM12.8923 7.31942C12.7835 7.78999 13.3059 8.23819 13.6799 7.93263C13.8581 7.78709 14.0327 7.63404 14.2039 7.47351C14.5197 7.17716 14.826 6.86272 15.1226 6.53019C15.5781 6.01966 15.5758 5.25298 15.1186 4.74407C14.8232 4.41532 14.5183 4.10344 14.2039 3.80843C14.0281 3.6435 13.8485 3.48616 13.6653 3.33639C13.2971 3.03549 12.7769 3.47724 12.884 3.9405C13.0113 4.49081 13.0777 5.0558 13.0833 5.63546C13.0833 6.20779 13.0196 6.76911 12.8923 7.31942ZM8.83325 7.04426C8.68384 7.04426 8.54549 7.00758 8.41821 6.9342C8.29093 6.86083 8.18026 6.76177 8.08618 6.63703C7.99211 6.5123 7.91463 6.36188 7.85376 6.18578C7.79289 6.00968 7.76522 5.82624 7.77075 5.63546C7.77075 5.43735 7.79842 5.25391 7.85376 5.08515C7.9091 4.91639 7.98381 4.76964 8.07788 4.6449C8.17196 4.52016 8.2854 4.41744 8.41821 4.33673C8.55103 4.25601 8.68937 4.21933 8.83325 4.22667C8.98267 4.22667 9.12101 4.26335 9.24829 4.33673C9.37557 4.4101 9.48625 4.50916 9.58032 4.6339C9.6744 4.75863 9.75187 4.90905 9.81274 5.08515C9.87362 5.26125 9.90129 5.44469 9.89575 5.63546C9.89575 5.83358 9.86808 6.01701 9.81274 6.18578C9.75741 6.35454 9.6827 6.50129 9.58862 6.62603C9.49455 6.75076 9.3811 6.85349 9.24829 6.9342C9.11548 7.01491 8.97713 7.0516 8.83325 7.04426Z" fill="white"/>
</svg>
