<svg width="18" height="18" viewBox="0 0 18 18" fill="none" xmlns="http://www.w3.org/2000/svg">
<path d="M16.0714 0H1.92857C1.41708 0 0.926543 0.197544 0.564865 0.549175C0.203188 0.900806 0 1.37772 0 1.875L0 15.625C0 16.1223 0.203188 16.5992 0.564865 16.9508C0.926543 17.3025 1.41708 17.5 1.92857 17.5H7.44308V11.5504H4.91183V8.75H7.44308V6.61562C7.44308 4.18789 8.92969 2.84687 11.2066 2.84687C12.2971 2.84687 13.4373 3.03594 13.4373 3.03594V5.41875H12.1809C10.943 5.41875 10.5569 6.16562 10.5569 6.93164V8.75H13.3204L12.8784 11.5504H10.5569V17.5H16.0714C16.5829 17.5 17.0735 17.3025 17.4351 16.9508C17.7968 16.5992 18 16.1223 18 15.625V1.875C18 1.37772 17.7968 0.900806 17.4351 0.549175C17.0735 0.197544 16.5829 0 16.0714 0Z" fill="white"/>
</svg>
