<svg width="16" height="14" viewBox="0 0 16 14" fill="none" xmlns="http://www.w3.org/2000/svg">
<path d="M11.6526 0.000374155C12.2085 0.000374155 12.7299 0.112995 13.2169 0.338236C13.7038 0.563478 14.1293 0.867292 14.4933 1.24968C14.8573 1.63207 15.1426 2.08517 15.3492 2.60898C15.5558 3.1328 15.6616 3.68805 15.6665 4.27472C15.6665 4.84568 15.5657 5.39307 15.364 5.91689C15.1623 6.44071 14.8721 6.90167 14.4933 7.29977L8.98526 13.1585C8.51137 13.6625 7.71057 13.6625 7.23668 13.1585L1.7286 7.29977C1.35475 6.90167 1.06699 6.44071 0.865315 5.91689C0.663637 5.39307 0.560339 4.84568 0.55542 4.27472C0.55542 3.68805 0.658718 3.13542 0.865315 2.61684C1.07191 2.09826 1.35967 1.64516 1.7286 1.25754C2.09752 0.869911 2.52301 0.563478 3.00507 0.338236C3.48713 0.112995 4.00854 0.000374155 4.56931 0.000374155C4.97758 0.000374155 5.34159 0.0501368 5.66132 0.149662C5.98105 0.249187 6.27619 0.38538 6.54673 0.55824C6.81728 0.731099 7.07798 0.943245 7.32885 1.19468C7.75641 1.6232 8.45788 1.62293 8.88571 1.19468C9.13166 0.948483 9.39236 0.738957 9.66783 0.566097C9.94329 0.393237 10.2409 0.254426 10.5606 0.149662C10.8804 0.0448986 11.2444 -0.00486402 11.6526 0.000374155ZM13.8219 6.58476C14.1121 6.27571 14.3335 5.92213 14.486 5.52403C14.6385 5.12593 14.7147 4.70949 14.7147 4.27472C14.7147 3.819 14.636 3.39471 14.4786 3.00185C14.3212 2.60898 14.1047 2.26588 13.8293 1.97255C13.5538 1.67921 13.2292 1.45135 12.8553 1.28896C12.4815 1.12658 12.0806 1.04277 11.6526 1.03753C11.2394 1.03753 10.873 1.10563 10.5532 1.24182C10.2335 1.37801 9.93837 1.56135 9.66783 1.79183C9.39728 2.02231 9.13904 2.27636 8.89309 2.55398C8.88943 2.55811 8.88578 2.56223 8.88212 2.56636C8.46938 3.03207 7.74488 3.039 7.33623 2.5697C7.08536 2.2816 6.82466 2.02231 6.55411 1.79183C6.28357 1.56135 5.98597 1.37278 5.66132 1.22611C5.33667 1.07944 4.97266 1.0061 4.56931 1.0061C4.14627 1.0061 3.74784 1.08991 3.37399 1.25754C3.00015 1.42516 2.6755 1.65826 2.40004 1.95683C2.12457 2.25541 1.90568 2.60375 1.74335 3.00185C1.58103 3.39995 1.49986 3.82424 1.49986 4.27472C1.49986 4.70949 1.57611 5.12593 1.7286 5.52403C1.88108 5.92213 2.1049 6.27571 2.40004 6.58476L7.23621 11.7348C7.71018 12.2395 8.51176 12.2395 8.98573 11.7348L13.8219 6.58476Z" fill="white"/>
</svg>
