<svg width="18" height="18" viewBox="0 0 18 18" fill="none" xmlns="http://www.w3.org/2000/svg">
<path d="M18 2.125V15.875C18 16.9102 17.1362 17.75 16.0714 17.75H6.20357C6.59732 17.1094 7.10357 16.1875 7.30446 15.4336C7.425 14.9844 7.9192 13.1523 7.9192 13.1523C8.24063 13.75 9.1808 14.2539 10.1812 14.2539C13.1585 14.2539 15.3 11.5938 15.3 8.28906C15.3 5.12109 12.6402 2.75 9.21696 2.75C4.95804 2.75 2.7 5.52734 2.7 8.55469C2.7 9.96094 3.47143 11.7109 4.70089 12.2695C4.88973 12.3555 4.98616 12.3164 5.03036 12.1406C5.0625 12.0078 5.23125 11.3555 5.30357 11.0547C5.32768 10.957 5.31563 10.875 5.23527 10.7812C4.82946 10.3008 4.5 9.41797 4.5 8.59375C4.5 6.47656 6.14732 4.42969 8.9558 4.42969C11.3786 4.42969 13.0781 6.03516 13.0781 8.33203C13.0781 10.9258 11.7321 12.7227 9.97634 12.7227C9.00804 12.7227 8.28482 11.9453 8.51384 10.9883C8.79107 9.84766 9.32946 8.61719 9.32946 7.79297C9.32946 5.72266 6.29598 6.00781 6.29598 8.76953C6.29598 9.61719 6.58929 10.1953 6.58929 10.1953C5.32768 15.3828 5.13884 15.4492 5.4 17.7188L5.48839 17.75H1.92857C0.863839 17.75 0 16.9102 0 15.875V2.125C0 1.08984 0.863839 0.25 1.92857 0.25H16.0714C17.1362 0.25 18 1.08984 18 2.125Z" fill="white"/>
</svg>
