<svg width="18" height="18" viewBox="0 0 18 18" fill="none" xmlns="http://www.w3.org/2000/svg">
<path d="M16.0714 0.25H1.92857C0.863839 0.25 0 1.08984 0 2.125V15.875C0 16.9102 0.863839 17.75 1.92857 17.75H16.0714C17.1362 17.75 18 16.9102 18 15.875V2.125C18 1.08984 17.1362 0.25 16.0714 0.25ZM14.1067 6.45312C14.1147 6.5625 14.1147 6.67578 14.1147 6.78516C14.1147 10.1719 11.4629 14.0742 6.61741 14.0742C5.12277 14.0742 3.73661 13.6523 2.57143 12.9258C2.78437 12.9492 2.98929 12.957 3.20625 12.957C4.43973 12.957 5.57277 12.5508 6.47679 11.8633C5.31964 11.8398 4.34732 11.1016 4.01384 10.0859C4.41964 10.1445 4.78527 10.1445 5.20312 10.0391C3.99777 9.80078 3.09375 8.76953 3.09375 7.52344V7.49219C3.4433 7.68359 3.85312 7.80078 4.28304 7.81641C3.9216 7.58267 3.62531 7.26557 3.42059 6.89342C3.21588 6.52127 3.10911 6.10563 3.10982 5.68359C3.10982 5.20703 3.23839 4.76953 3.46741 4.39062C4.76518 5.94531 6.71384 6.96094 8.89955 7.07031C8.52589 5.33203 9.86384 3.92188 11.471 3.92188C12.2304 3.92188 12.9134 4.23047 13.3955 4.73047C13.9902 4.62109 14.5607 4.40625 15.067 4.11328C14.8701 4.70703 14.4563 5.20703 13.9098 5.52344C14.4402 5.46875 14.9545 5.32422 15.4286 5.125C15.071 5.63672 14.621 6.08984 14.1067 6.45312Z" fill="white"/>
</svg>
