<svg width="18" height="18" viewBox="0 0 18 18" fill="none" xmlns="http://www.w3.org/2000/svg">
<path d="M16.0714 0.25H1.92857C0.863839 0.25 0 1.08984 0 2.125V15.875C0 16.9102 0.863839 17.75 1.92857 17.75H16.0714C17.1362 17.75 18 16.9102 18 15.875V2.125C18 1.08984 17.1362 0.25 16.0714 0.25ZM15.4205 6.09375C15.3643 7.30859 14.4884 8.97656 12.7969 11.0898C11.0491 13.2969 9.57054 14.4023 8.36116 14.4023C7.60982 14.4023 6.97902 13.7305 6.46071 12.3867C5.44821 8.78125 5.0183 6.66797 4.18259 6.66797C4.08616 6.66797 3.74866 6.86328 3.17411 7.25781L2.57143 6.5C4.05402 5.23438 5.4683 3.82812 6.35223 3.75C7.35268 3.65625 7.96741 4.32031 8.20045 5.74609C9.02411 10.8086 9.38973 11.5742 10.8844 9.28125C11.4228 8.45312 11.7121 7.82812 11.7482 7.39453C11.8848 6.11328 10.7196 6.19922 9.93214 6.52734C10.5629 4.51562 11.7723 3.53906 13.5522 3.59375C14.8741 3.63281 15.4969 4.46875 15.4205 6.09375Z" fill="white"/>
</svg>
