<svg width="18" height="18" viewBox="0 0 18 18" fill="none" xmlns="http://www.w3.org/2000/svg">
<path d="M7.50536 6.89453L11.3304 9.00781L7.50536 11.1211V6.89453ZM18 2.125V15.875C18 16.9102 17.1362 17.75 16.0714 17.75H1.92857C0.863839 17.75 0 16.9102 0 15.875V2.125C0 1.08984 0.863839 0.25 1.92857 0.25H16.0714C17.1362 0.25 18 1.08984 18 2.125ZM16.3125 9.01172C16.3125 9.01172 16.3125 6.68359 16.0071 5.56641C15.8384 4.94922 15.3442 4.46484 14.7134 4.30078C13.5763 4 9 4 9 4C9 4 4.42366 4 3.28661 4.30078C2.6558 4.46484 2.16161 4.94922 1.99286 5.56641C1.6875 6.67969 1.6875 9.01172 1.6875 9.01172C1.6875 9.01172 1.6875 11.3398 1.99286 12.457C2.16161 13.0742 2.6558 13.5391 3.28661 13.7031C4.42366 14 9 14 9 14C9 14 13.5763 14 14.7134 13.6992C15.3442 13.5352 15.8384 13.0703 16.0071 12.4531C16.3125 11.3398 16.3125 9.01172 16.3125 9.01172Z" fill="white"/>
</svg>
